<svg width="50" height="50" viewBox="0 0 50 50" fill="none" xmlns="http://www.w3.org/2000/svg">
<path fill-rule="evenodd" clip-rule="evenodd" d="M25 50C38.8071 50 50 38.8071 50 25C50 11.1929 38.8071 0 25 0C11.1929 0 0 11.1929 0 25C0 38.8071 11.1929 50 25 50Z" fill="url(#paint0_linear)"/>
<path d="M29.6094 14H20.3907C16.8668 14 14 16.8668 14 20.3907V29.6093C14 33.1332 16.8668 36 20.3907 36H29.6093C33.1332 36 36 33.1332 36 29.6094V20.3907C36 16.8668 33.1332 14 29.6094 14ZM34.2812 29.6093C34.2812 32.1854 32.1854 34.2812 29.6094 34.2812H20.3907C17.8146 34.2812 15.7188 32.1854 15.7188 29.6094V20.3907C15.7188 17.8146 17.8146 15.7188 20.3907 15.7188H29.6093C32.1854 15.7188 34.2812 17.8146 34.2812 20.3907V29.6093Z" fill="white"/>
<path d="M25 19.0703C21.7303 19.0703 19.0703 21.7303 19.0703 25C19.0703 28.2697 21.7303 30.9297 25 30.9297C28.2697 30.9297 30.9297 28.2697 30.9297 25C30.9297 21.7303 28.2697 19.0703 25 19.0703ZM25 29.2109C22.6781 29.2109 20.7891 27.3219 20.7891 25C20.7891 22.6781 22.6781 20.7891 25 20.7891C27.3219 20.7891 29.2109 22.6781 29.2109 25C29.2109 27.3219 27.3219 29.2109 25 29.2109Z" fill="white"/>
<path d="M31.0156 19.8438C31.4902 19.8438 31.875 19.459 31.875 18.9844C31.875 18.5098 31.4902 18.125 31.0156 18.125C30.541 18.125 30.1562 18.5098 30.1562 18.9844C30.1562 19.459 30.541 19.8438 31.0156 19.8438Z" fill="white"/>
<defs>
<linearGradient id="paint0_linear" x1="25" y1="0" x2="25" y2="50" gradientUnits="userSpaceOnUse">
<stop stop-color="#FEDA75"/>
<stop offset="1" stop-color="#D62976"/>
</linearGradient>
</defs>
</svg>
