<svg width="0" height="0" class="hidden">
	<symbol xmlns="http://www.w3.org/2000/svg" viewBox="0 0 19 16" id="images">
		<path fill-rule="evenodd" clip-rule="evenodd" d="M3 3.5v-2a1 1 0 011-1h14a1 1 0 011 1v10a1 1 0 01-1 1h-2v2a1 1 0 01-1 1H1a1 1 0 01-1-1v-10a1 1 0 011-1h2zm12 9H4a1 1 0 01-1-1v-7H1v10h14v-2zM4 1.5v10h14v-10H4zm14 10H4v-1l3-3 3 2 4-4 4 5v1zm-8.5-5a1.5 1.5 0 110-3 1.5 1.5 0 010 3z"></path>
	</symbol>

	<symbol xmlns="http://www.w3.org/2000/svg" viewBox="0 0 15 15" id="comment">
		<path fill-rule="evenodd" clip-rule="evenodd" d="M11.135 12v3L8.36 12H2.25a1.5 1.5 0 01-1.5-1.5V3a1.5 1.5 0 011.5-1.5h10.5a1.5 1.5 0 011.5 1.5v7.5a1.5 1.5 0 01-1.5 1.5h-1.615z"></path>
	</symbol>

	<symbol xmlns="http://www.w3.org/2000/svg" viewBox="0 0 15 15" id="heart">
		<path fill-rule="evenodd" clip-rule="evenodd" d="M12.84 2.96c-.67-.748-1.56-1.16-2.505-1.16-.947 0-1.74.412-2.41 1.16l-.425.68-.425-.68c-.669-.748-1.463-1.16-2.41-1.16-.945 0-1.835.412-2.504 1.16C.78 4.506.78 7.02 2.16 8.564l4.949 4.757a.523.523 0 00.393.179c.14 0 .28-.06.387-.18l4.95-4.756c1.38-1.544 1.38-4.058 0-5.604z"></path>
	</symbol>
	<symbol xmlns="http://www.w3.org/2000/svg" viewBox="0 0 17 17" id="download">
		<path fill-rule="evenodd" clip-rule="evenodd" d="M16 12.426c0-.237.263-.426.5-.426s.5.189.5.426v4.134a.44.44 0 01-.432.44H.426A.435.435 0 010 16.56v-4.134C0 12.19.263 12 .5 12s.5.189.5.426V16h15v-3.574zM9 0v10h3l-3.5 4L5 10h3V0h1z"></path>
	</symbol>

	<symbol xmlns="http://www.w3.org/2000/svg" viewBox="0 0 14 18" id="bookmark">
		<path fill-rule="evenodd" clip-rule="evenodd" d="M2 0h10a2 2 0 012 2v16l-6.905-5L0 18V2a2 2 0 012-2z"></path>
	</symbol>

	<symbol xmlns="http://www.w3.org/2000/svg" viewBox="0 0 50 50" id="facebook">
		<path fill-rule="evenodd" clip-rule="evenodd" d="M25 50c13.807 0 25-11.193 25-25S38.807 0 25 0 0 11.193 0 25s11.193 25 25 25z M29.623 16.004L27.225 16c-2.695 0-4.436 1.739-4.436 4.43v2.042h-2.412a.372.372 0 00-.377.367v2.96c0 .203.169.367.377.367h2.412v7.467c0 .203.168.367.377.367h3.146a.372.372 0 00.378-.367v-7.467h2.82a.372.372 0 00.377-.367v-2.96c0-.097-.04-.19-.11-.26a.383.383 0 00-.267-.107h-2.82v-1.731c0-.832.203-1.255 1.317-1.255h1.616a.372.372 0 00.377-.367V16.37a.372.372 0 00-.377-.367z"></path>
	</symbol>
	<symbol xmlns="http://www.w3.org/2000/svg" viewBox="0 0 60 60" id="instagram">
		<path d="M24.258 30a5.742 5.742 0 1011.484 0 5.742 5.742 0 00-11.484 0z"></path>
		<path d="M16.571 19.84a5.338 5.338 0 011.289-1.98 5.334 5.334 0 011.98-1.289c.607-.236 1.52-.516 3.199-.593 1.817-.083 2.361-.1 6.961-.1s5.145.017 6.961.1c1.68.077 2.592.357 3.199.593a5.33 5.33 0 011.98 1.289 5.34 5.34 0 011.29 1.98c.235.607.516 1.52.592 3.2.083 1.816.1 2.36.1 6.96s-.017 5.145-.1 6.962c-.076 1.68-.357 2.591-.593 3.198a5.34 5.34 0 01-1.288 1.98 5.333 5.333 0 01-1.98 1.29c-.608.236-1.52.516-3.2.593-1.816.082-2.36.1-6.96.1-4.601 0-5.146-.018-6.962-.1-1.68-.077-2.592-.358-3.199-.594a5.705 5.705 0 01-3.269-3.269c-.236-.607-.516-1.519-.593-3.198-.083-1.817-.1-2.362-.1-6.962s.017-5.144.1-6.96c.076-1.68.357-2.593.593-3.2zM30 38.846a8.846 8.846 0 100-17.692A8.846 8.846 0 0021.154 30 8.846 8.846 0 0030 38.846zm-9.196-15.974a2.067 2.067 0 100-4.135 2.067 2.067 0 000 4.135z"></path>
		<path d="M30 0c16.566 0 30 13.434 30 30 0 16.566-13.434 30-30 30C13.434 60 0 46.566 0 30 0 13.434 13.434 0 30 0zM12.877 37.102c.084 1.834.375 3.086.801 4.182a8.808 8.808 0 005.038 5.038c1.096.426 2.348.717 4.181.8 1.837.084 2.424.105 7.103.105 4.678 0 5.265-.02 7.102-.104 1.834-.084 3.086-.375 4.181-.801a8.44 8.44 0 003.052-1.987 8.445 8.445 0 001.987-3.051c.425-1.096.717-2.348.8-4.181.085-1.838.105-2.425.105-7.103s-.02-5.265-.104-7.102c-.084-1.834-.375-3.086-.8-4.182a8.44 8.44 0 00-1.988-3.05 8.44 8.44 0 00-3.051-1.988c-1.096-.426-2.348-.717-4.182-.8-1.837-.084-2.424-.105-7.102-.105-4.678 0-5.265.02-7.102.105-1.834.083-3.086.374-4.182.8a8.445 8.445 0 00-3.051 1.987 8.44 8.44 0 00-1.987 3.051c-.426 1.096-.717 2.348-.801 4.182-.084 1.837-.104 2.424-.104 7.102 0 4.678.02 5.265.104 7.102z"></path>
	</symbol>

	<symbol xmlns="http://www.w3.org/2000/svg" viewBox="0 0 50 50" id="youtube">
		<path fill-rule="evenodd" clip-rule="evenodd" d="M25 50c13.807 0 25-11.193 25-25S38.807 0 25 0 0 11.193 0 25s11.193 25 25 25z M25 17.8c-2.898 0-6.66.73-6.66.73l-.009.01A2.77 2.77 0 0016 21.277v7.445a2.778 2.778 0 002.338 2.743l.003.004s3.761.731 6.659.731c2.898 0 6.66-.73 6.66-.73A2.78 2.78 0 0034 28.722v-7.446a2.778 2.778 0 00-2.338-2.744C31.66 18.53 27.898 17.8 25 17.8zm-1.8 4.05L28.6 25l-5.4 3.15v-6.3z"></path>
	</symbol>
	<symbol xmlns="http://www.w3.org/2000/svg" viewBox="0 0 50 50" id="twitter">
		<path fill-rule="evenodd" clip-rule="evenodd" d="M25 50c13.807 0 25-11.193 25-25S38.807 0 25 0 0 11.193 0 25s11.193 25 25 25z M33.979 19.363a.088.088 0 00-.105-.024 7.158 7.158 0 01-1.687.516 3.777 3.777 0 001.317-1.867.09.09 0 00-.03-.098.089.089 0 00-.101-.008 7.177 7.177 0 01-2.245.875 3.745 3.745 0 00-2.7-1.157c-2.066 0-3.746 1.696-3.746 3.78 0 .253.024.503.072.745A10.298 10.298 0 0117.4 18.31a.09.09 0 00-.147.012 3.806 3.806 0 00-.506 1.9 3.79 3.79 0 001.41 2.958 3.556 3.556 0 01-1.307-.426.088.088 0 00-.088 0 .09.09 0 00-.045.077v.048a3.79 3.79 0 002.633 3.612 3.57 3.57 0 01-1.245-.018.09.09 0 00-.102.115 3.752 3.752 0 003.251 2.614 7.155 7.155 0 01-4.291 1.412c-.288 0-.578-.017-.862-.051a.09.09 0 00-.095.059.09.09 0 00.036.106 10.38 10.38 0 005.653 1.673c6.568 0 10.493-5.385 10.493-10.591 0-.145-.003-.29-.009-.433a7.51 7.51 0 001.807-1.905.091.091 0 00-.006-.108z"></path>
	</symbol>
	

</svg>